# xmcd
#
# Track frame offsets: 
#        150
#        13261
#        28912
#        45258
#        65315
#        81769
#        102526
#        134606
#        150806
#        168313
#        170654
#        199583
#        216291
#        234347
#        252670
#        277511
#        315911
#
# Disc length: 4429 seconds
#
# Revision: 2
# Processed by: cddbd v1.5.2PL0 Copyright (c) Steve Scherf et al.
# Submitted via: ExactAudioCopy v0.90b4
#
DISCID=dc114b11
DTITLE=Michael Messer - King Guitar
DYEAR=2001
DGENRE=Blues
TTITLE0=King Guitar
TTITLE1=Living In Rhythm
TTITLE2=Lone Wolf Blues
TTITLE3=Crow Blues
TTITLE4=Step Right Up
TTITLE5=Drivin' Wheel Blues Part One
TTITLE6=Worried Life
TTITLE7=Steel Guitar Blues
TTITLE8=Rollin'n'Tumblin'
TTITLE9=Right Hand Road
TTITLE10=Drivin' Wheel Blues Part Two
TTITLE11=Diving Duck
TTITLE12=Rising Sun Blues
TTITLE13=I Can't Be Satisfied
TTITLE14=Robert Johnson's Wake
TTITLE15=Cannonball Blues
TTITLE16=Moonbeat
EXTD=
EXTT0=
EXTT1=
EXTT2=
EXTT3=
EXTT4=
EXTT5=
EXTT6=
EXTT7=
EXTT8=
EXTT9=
EXTT10=
EXTT11=
EXTT12=
EXTT13=
EXTT14=
EXTT15=
EXTT16=
PLAYORDER=
